<?xml version="1.0" encoding="utf-8"?>
<!-- Generator: Adobe Illustrator 15.0.2, SVG Export Plug-In . SVG Version: 6.00 Build 0)  -->
<!DOCTYPE svg PUBLIC "-//W3C//DTD SVG 1.1//EN" "http://www.w3.org/Graphics/SVG/1.1/DTD/svg11.dtd">
<svg version="1.1" xmlns="http://www.w3.org/2000/svg" xmlns:xlink="http://www.w3.org/1999/xlink" x="0px" y="0px" width="831px"
	 height="435px" viewBox="0 0 831 435" enable-background="new 0 0 831 435" xml:space="preserve">
<g id="Layer_1">
	<g id="XMLID_1_">
		<g>
			<path fill="#005193" d="M626.43,210.49c11.602,2.56,19.25,13.93,19.021,25.529c0.229,31.09-24.59,43.391-52.67,43.149H518.77
				l26.682-128.3h66.12c28.08,0.23,38.29,9.97,38.52,28.31c-0.229,16.24-8.12,26.91-23.66,30.85L626.43,210.49L626.43,210.49z
				 M608.79,190.31c-0.23-7.89-5.34-9.28-12.53-9.28h-20.18l-3.95,19.49h22.28C600.67,200.29,608.56,197.97,608.79,190.31z
				 M604.61,235.33c-0.23-9.521-7.19-11.15-15.312-11.15h-22.04l-5.34,24.142h25.521C594.64,248.32,604.38,245.77,604.61,235.33z"/>
			<path fill="#005193" d="M473.99,147.85c27.608,0.23,52.2,10.44,51.51,42h-36.66c0.46-5.11-1.398-8.36-4.18-10.67
				c-3.021-2.09-7.19-2.79-11.83-3.02c-6.5,0.23-15.08,2.31-15.32,10.67c0.24,9.75,19.49,10.21,32.021,14.85
				c22.278,7.89,29.93,19.958,30.17,35.5c-0.24,30.62-30.4,45.24-58.01,45.48c-29.7-0.24-56.381-13.69-54.521-46.641h37.811
				c0.471,7.189,2.091,11.601,5.341,14.84c3.25,2.791,7.89,3.25,14.39,3.49c7.89-0.24,17.4-4.181,16.93-12.529
				c0.472-9.512-12.76-10.67-30.619-16.471c-15.551-5.341-30.631-13.689-30.859-34.811C420.39,161.31,448.47,148.08,473.99,147.85z"
				/>
			<path fill="#005193" d="M419,150.17l-17.63,85.16c-6.73,32.24-30.4,46.39-62.88,46.859c-38.52-0.471-54.53-19.021-54.29-39.681
				c-0.24-2.319,0.69-7.42,1.16-10.2l17.17-82.14h39.67l-14.851,70.3c-0.689,3.95-1.85,10.44-1.85,12.53
				c0,3.95-0.93,16.71,14.85,16.479c16.471,0.229,21.57-14.391,24.36-29.011l14.61-70.3H419V150.17z"/>
		</g>
	</g>
	<g>
		<g id="XMLID_2_">
			<g>
				<path fill="#005193" d="M224.215,200.86c7.563,0,7.8,4.957,6.159,13.468c-0.947,4.247-2.369,13.705-12.063,13.705h-9.221
					l5.685-27.172L224.215,200.86L224.215,200.86z M224.452,214.564c1.185-4.958,2.132-9.458-1.878-9.458h-2.842l-4.01,18.916h2.588
					C221.864,224.021,223.048,221.417,224.452,214.564z"/>
				<polygon fill="#005193" points="206.501,200.86 205.791,205.106 196.569,205.106 195.148,211.722 203.659,211.722 
					202.711,215.969 194.201,215.969 192.56,224.021 202,224.021 201.053,228.032 185.944,228.032 191.849,200.86 				"/>
				<polygon fill="#005193" points="182.865,200.86 176.96,228.032 171.275,228.032 177.197,200.86 				"/>
				<polygon fill="#005193" points="170.345,200.86 169.397,205.106 160.887,205.106 159.466,212.196 167.502,212.196 
					166.555,216.222 158.519,216.222 156.149,228.032 150.482,228.032 156.149,200.86 				"/>
				<polygon fill="#005193" points="147.419,200.86 141.498,228.032 135.83,228.032 141.734,200.86 				"/>
				<polygon fill="#005193" points="134.882,200.86 133.935,205.343 127.556,205.343 122.836,228.032 117.168,228.032 
					121.888,205.343 115.51,205.343 116.457,200.86 				"/>
				<path fill="#005193" d="M103.92,200.86c4.027,0,5.922,2.588,4.975,7.089c-0.355,1.76-1.015,3.299-2.064,4.484
					c-1.066,1.184-2.538,2.013-4.551,2.369c1.185,0.237,4.958,0.474,3.773,5.431c-0.237,1.658-1.184,6.854-0.947,7.801h-5.668
					c-0.237-1.658,0.237-3.301,0.71-5.194c0.474-3.315,1.421-5.922-2.842-5.922h-1.421l-2.588,11.116h-5.668l5.905-27.172
					L103.92,200.86L103.92,200.86z M102.99,208.66c0.474-2.605-0.474-3.553-2.132-3.553h-2.606l-1.658,7.563H99.2
					C101.568,212.669,102.516,210.538,102.99,208.66z"/>
				<polygon fill="#005193" points="85.495,200.86 84.548,205.106 75.327,205.106 73.905,211.722 82.416,211.722 81.468,215.969 
					73.212,215.969 71.317,224.021 80.775,224.021 80.064,228.032 64.938,228.032 70.606,200.86 				"/>
				<path fill="#005193" d="M54.77,200.386c5.668,0,7.326,3.299,5.905,9.221h-5.431c0.71-3.79,0.237-4.974-1.421-4.974
					c-3.079,0-4.247,2.842-5.668,9.932c-1.421,6.853-1.658,9.932,1.421,9.932c2.589,0,3.299-3.315,3.773-5.448h5.668
					c-1.641,7.09-4.958,9.458-10.151,9.458c-9.458,0-8.037-6.853-6.379-13.941C43.891,207.238,45.312,200.386,54.77,200.386z"/>
			</g>
		</g>
	</g>
	<path fill="#005193" d="M49.727,250.478h186c0,0,6.115,72.113,97.103,72.557c90.988,0.443,207.896,0.443,207.896,0.443l8-29
		c0,0,91.75,12.975,105-44c127.35-0.189,146.104-5.229,147.023,12.496c15.977,75.504,22.229,84.623,16.537,95.127
		c-2.916,3.334,0.168,2.25-10.561,6.377c-501.448,0.248-517.507-9.033-512.999,18s5.68,40.568-0.66,37.283
		c-6.34-3.283-243.339-162.154-243.339-162.154S43.565,253.575,49.727,250.478z"/>
	<g id="XMLID_4_">
		<g>
			<path fill="#EE3940" d="M783.99,177.7c7,5-2.61,6-2.61,6s-35.47,0.33-119.39,0c1.14-60.25-77-45-77-45l7-28
				c0,0-116.181,0-220.4-0.47S246.98,183.7,246.98,183.7l-195.76,0.15c-16.77,0.14-19.24-16.15-19.24-16.15s-14-65-17-80
				s13-17,13-17s482.01,0,497.53,0.51c15.53,0.52,14.721-16.59,14.721-16.59s-5.24-33.92-4.24-36.92s7.87-3.03,7.87-3.03
				S776.99,172.7,783.99,177.7z"/>
		</g>
		<g>
		</g>
	</g>
</g>
<g id="Layer_2">
	<g>
		<path fill="#005193" d="M97.881,2.138h6.221l-5.967,28.596c-0.487,2.37-0.73,4.126-0.73,5.269c0,2.497,0.984,4.507,2.952,6.03
			s4.443,2.285,7.427,2.285c2.369,0,4.575-0.544,6.617-1.635c2.042-1.089,3.655-2.692,4.84-4.808
			c1.186-2.116,2.254-5.491,3.206-10.125l5.364-25.613h6.221l-5.682,27.295c-0.974,4.655-2.254,8.342-3.84,11.061
			c-1.588,2.719-3.788,4.898-6.602,6.538c-2.814,1.639-6.084,2.459-9.808,2.459c-3.513,0-6.554-0.582-9.125-1.746
			c-2.57-1.164-4.496-2.771-5.776-4.824c-1.28-2.052-1.92-4.38-1.92-6.982c0-1.629,0.434-4.433,1.301-8.411L97.881,2.138z"/>
	</g>
	<g>
		<path fill="#005193" d="M140.821,47.728l9.405-44.91h18.749c3.247,0,5.683,0.373,7.306,1.118c1.624,0.746,2.966,2.021,4.029,3.829
			c1.062,1.808,1.593,3.834,1.593,6.081c0,1.858-0.378,3.748-1.133,5.667c-0.756,1.92-1.711,3.503-2.864,4.748
			c-1.154,1.246-2.324,2.186-3.508,2.818c-1.185,0.633-2.451,1.103-3.799,1.409c-2.879,0.674-5.79,1.011-8.731,1.011h-11.243
			l-3.799,18.228H140.821z M151.697,24.415h9.895c3.839,0,6.658-0.414,8.455-1.241c1.797-0.827,3.237-2.088,4.319-3.783
			s1.624-3.493,1.624-5.392c0-1.471-0.286-2.67-0.857-3.6c-0.572-0.929-1.379-1.613-2.42-2.053
			c-1.042-0.439-3.043-0.659-6.004-0.659h-11.519L151.697,24.415z"/>
	</g>
	<g>
		<g>
			<path fill="#005193" d="M38.931,33.623l6.094-0.571l-0.063,1.619c0,1.799,0.413,3.443,1.237,4.936
				c0.826,1.491,2.19,2.645,4.095,3.459c1.904,0.815,4.168,1.222,6.792,1.222c3.724,0,6.564-0.814,8.521-2.444
				c1.957-1.629,2.936-3.491,2.936-5.586c0-1.46-0.519-2.793-1.555-3.999c-1.059-1.185-3.946-2.793-8.664-4.824
				c-3.661-1.587-6.158-2.803-7.49-3.65c-2.096-1.375-3.64-2.873-4.635-4.491c-0.994-1.619-1.491-3.465-1.491-5.539
				c0-2.391,0.655-4.549,1.968-6.475c1.312-1.925,3.231-3.396,5.761-4.412c2.528-1.016,5.38-1.523,8.554-1.523
				c3.787,0,6.982,0.635,9.584,1.904c2.604,1.27,4.491,2.962,5.666,5.078c1.174,2.116,1.762,4.137,1.762,6.062
				c0,0.19-0.012,0.508-0.032,0.952l-5.999,0.476c0-1.312-0.116-2.338-0.349-3.079c-0.424-1.291-1.079-2.38-1.968-3.269
				s-2.11-1.603-3.666-2.143c-1.555-0.539-3.296-0.809-5.221-0.809c-3.386,0-6.02,0.762-7.902,2.285
				c-1.439,1.164-2.158,2.708-2.158,4.634c0,1.143,0.296,2.164,0.889,3.063c0.592,0.899,1.66,1.783,3.205,2.65
				c1.1,0.614,3.713,1.831,7.84,3.65c3.343,1.481,5.648,2.645,6.918,3.491c1.693,1.122,2.994,2.481,3.904,4.078
				c0.909,1.598,1.365,3.412,1.365,5.443c0,2.518-0.768,4.84-2.302,6.967c-1.534,2.126-3.655,3.771-6.363,4.935
				c-2.709,1.164-5.808,1.746-9.3,1.746c-5.268,0-9.568-1.147-12.901-3.443C40.629,43.721,38.952,39.589,38.931,33.623z"/>
		</g>
		<g>
			<path fill="#005193" d="M229.753,48.667l9.086-46.528h18.202c3.591,0,6.314,0.323,8.169,0.968
				c1.854,0.646,3.31,1.857,4.365,3.634c1.055,1.777,1.583,4.021,1.583,6.729c0,3.788-1.154,6.93-3.463,9.426
				c-2.309,2.497-6.038,4.116-11.188,4.856c1.579,1.249,2.772,2.476,3.581,3.682c1.815,2.729,3.275,5.554,4.38,8.474l3.315,8.76
				h-6.481l-3.108-8.665c-1.125-3.131-2.407-5.84-3.848-8.125c-0.987-1.587-1.993-2.629-3.019-3.126
				c-1.026-0.497-2.693-0.746-5.002-0.746h-6.748l-4.025,20.662H229.753z M240.556,22.958h8.021c3.709,0,6.126-0.053,7.251-0.159
				c2.19-0.232,3.985-0.762,5.387-1.587c1.4-0.825,2.486-1.936,3.255-3.333s1.154-2.898,1.154-4.507
				c0-1.354-0.286-2.534-0.858-3.539c-0.572-1.004-1.322-1.687-2.249-2.047c-0.928-0.359-2.506-0.54-4.735-0.54h-14.147
				L240.556,22.958z"/>
		</g>
	</g>
	<g>
		<path fill="#005193" d="M183.644,48.667l9.098-46.528h31.354l-1.037,5.3h-25.545l-2.845,14.473h24.894l-1.037,5.3H193.63
			l-3.141,16.187h27.353l-1.037,5.269H183.644z"/>
	</g>
	<g>
		<path fill="#005193" d="M278.126,34.607l9.109-0.476c0.127,2.899,0.624,4.856,1.492,5.872c1.396,1.65,3.978,2.476,7.744,2.476
			c3.131,0,5.396-0.561,6.792-1.682c1.396-1.121,2.095-2.476,2.095-4.063c0-1.375-0.571-2.539-1.714-3.491
			c-0.804-0.698-3.01-1.83-6.617-3.396c-3.608-1.565-6.242-2.873-7.903-3.919c-1.661-1.048-2.967-2.407-3.919-4.079
			c-0.952-1.671-1.428-3.628-1.428-5.872c0-3.914,1.417-7.162,4.253-9.744c2.835-2.581,6.94-3.872,12.314-3.872
			c5.459,0,9.685,1.28,12.68,3.84c2.994,2.561,4.639,5.967,4.935,10.22l-9.172,0.413c-0.233-2.222-1.037-3.925-2.412-5.11
			c-1.375-1.185-3.407-1.777-6.094-1.777c-2.645,0-4.534,0.466-5.665,1.396c-1.132,0.931-1.698,2.105-1.698,3.523
			c0,1.333,0.518,2.434,1.555,3.301c1.037,0.889,3.333,2.105,6.887,3.65c5.353,2.307,8.76,4.179,10.22,5.618
			c2.179,2.116,3.269,4.835,3.269,8.157c0,4.105-1.624,7.612-4.872,10.521c-3.249,2.909-7.771,4.364-13.568,4.364
			c-3.999,0-7.464-0.672-10.395-2.015c-2.931-1.344-4.999-3.211-6.205-5.602C278.602,40.468,278.041,37.717,278.126,34.607z"/>
	</g>
	<g>
		<path fill="#005193" d="M333.219,48.667h-9.585l9.744-46.528h18.916c3.364,0,6.025,0.396,7.982,1.19
			c1.957,0.793,3.507,2.105,4.649,3.936s1.714,4.015,1.714,6.554c0,2.349-0.455,4.634-1.365,6.855
			c-0.91,2.222-2.026,3.999-3.348,5.332c-1.323,1.333-2.746,2.344-4.269,3.031s-3.576,1.211-6.157,1.571
			c-1.502,0.212-4.316,0.317-8.442,0.317h-6.125L333.219,48.667z M338.52,23.212h2.952c5.057,0,8.432-0.317,10.125-0.952
			c1.692-0.635,3.025-1.65,3.999-3.047c0.973-1.396,1.46-2.93,1.46-4.602c0-1.121-0.249-2.042-0.746-2.761
			c-0.497-0.719-1.195-1.243-2.095-1.571c-0.899-0.328-2.904-0.492-6.014-0.492h-6.855L338.52,23.212z"/>
	</g>
	<g>
		<path fill="#005193" d="M369.694,49.683l9.247-46.528h32.849l-1.541,7.776h-23.723l-2.116,10.569h22.937l-1.541,7.776H382.87
			l-2.78,12.632h25.778l-1.572,7.776H369.694z"/>
	</g>
	<g>
		<path fill="#005193" d="M413.297,49.683l9.247-46.528h32.849l-1.541,7.776h-23.723l-2.115,10.569h22.938l-1.541,7.776h-22.938
			l-2.78,12.632h25.778l-1.572,7.776H413.297z"/>
	</g>
	<g>
		<path fill="#005193" d="M456.582,48.667l9.744-46.528h12.537c3.49,0,5.723,0.053,6.696,0.159c1.925,0.19,3.645,0.582,5.157,1.174
			c1.513,0.593,2.889,1.423,4.126,2.491c1.238,1.069,2.306,2.354,3.206,3.856c0.898,1.502,1.592,3.232,2.078,5.189
			s0.73,4.1,0.73,6.427c0,5.015-0.957,9.463-2.872,13.346c-1.915,3.883-4.322,6.967-7.221,9.252
			c-2.222,1.777-5.089,3.089-8.601,3.936c-1.99,0.466-5.047,0.698-9.173,0.698H456.582z M467.723,41.176h4.855
			c3.513,0,6.057-0.217,7.634-0.65c1.575-0.434,3.021-1.243,4.332-2.428c1.883-1.714,3.47-3.999,4.761-6.855
			s1.936-6.221,1.936-10.093c0-3.301-0.534-5.781-1.603-7.443c-1.068-1.661-2.386-2.766-3.951-3.316
			c-1.101-0.381-3.058-0.571-5.872-0.571h-5.554L467.723,41.176z"/>
	</g>
</g>
</svg>
